# xmcd CD database file
#
# Track frame offsets:
#	150
#	16562
#	29742
#	48380
#	64467
#	78817
#	105065
#	123552
#	141037
#	162205
#	181662
#	200237
#	216692
#	234360
#
# Disc length: 3262 seconds
#
# Revision: 0
# Processed by: cddbd v1.5.1PL0 Copyright (c) Steve Scherf et al.
# Submitted via: CDex 1.51
#
DISCID=bc0cbc0e
DTITLE=THE DOGS D'AMOUR - MORE UNCHARTERED HEIGHTS OF DISGRACE
DYEAR=1993
DGENRE=Rock
TTITLE0=What's Happening Here?
TTITLE1=What You Do
TTITLE2=Pretty, Pretty Once[
TTITLE3=World's Different Now (An Ode To Drug Hill)
TTITLE4=Mr. Addiction
TTITLE5=Johnny Silvers
TTITLE6=Cath
TTITLE7=More Unchartered Heights Of Disgrace
TTITLE8=Scared Of Dying
TTITLE9=Mr. Barfly
TTITLE10=Put It In Her Arm
TTITLE11=All or Nothing
TTITLE12=English Outlaw
TTITLE13=No Gypsy Blood
EXTD=YEAR: 1993
EXTT0=
EXTT1=
EXTT2=
EXTT3=
EXTT4=
EXTT5=
EXTT6=
EXTT7=
EXTT8=
EXTT9=
EXTT10=
EXTT11=
EXTT12=
EXTT13=
PLAYORDER=
